<svg width="484" height="163" viewBox="0 0 484 163" fill="none" xmlns="http://www.w3.org/2000/svg">
<g clip-path="url(#clip0_1_243)">
<mask id="mask0_1_243" style="mask-type:luminance" maskUnits="userSpaceOnUse" x="0" y="0" width="484" height="163">
<rect width="484" height="163" fill="white"/>
</mask>
<g mask="url(#mask0_1_243)">
<path d="M-5 62.5192C6.16651 37.2834 42.8299 -4.9201 100.151 28.152C171.803 69.4922 185.761 96.8863 254.621 62.5192C323.481 28.152 355.12 20.6809 409.091 62.5192C452.269 95.9897 477.021 76.4652 484 62.5192" stroke="#3CD856" stroke-width="4"/>
<path d="M-5 35.9999C20 7.49993 44.4 33.7999 106 66.9999C183 108.5 188.473 82.0136 261.5 45.4999C328.5 11.9999 380.5 48 438.5 89.9999C484.9 123.6 514.5 104 522 89.9999" stroke="#8950FC" stroke-width="4"/>
<path d="M-5 35.9999C20 7.49993 44.4 33.7999 106 66.9999C183 108.5 188.473 82.0136 261.5 45.4999C328.5 11.9999 380.5 48 438.5 89.9999C484.9 123.6 514.5 104 522 89.9999" stroke="#A700FF" stroke-width="4"/>
<path d="M0 77.4616C25 48.9616 49.4 75.2616 111 108.462C188 149.962 188.973 74.8279 262 38.3142C329 4.81423 387 45.8142 445 87.8142C491.4 121.414 519.5 145.462 527 131.462" stroke="#EF4444" stroke-width="4"/>
</g>
</g>
<defs>
<clipPath id="clip0_1_243">
<rect width="484" height="163" fill="white"/>
</clipPath>
</defs>
</svg>
